<?xml version="1.0" standalone="no"?>
<!DOCTYPE svg PUBLIC "-//W3C//DTD SVG 20010904//EN"
 "http://www.w3.org/TR/2001/REC-SVG-20010904/DTD/svg10.dtd">
<svg version="1.0" xmlns="http://www.w3.org/2000/svg"
 width="1024.000000pt" height="1024.000000pt" viewBox="0 0 1024.000000 1024.000000"
 preserveAspectRatio="xMidYMid meet">

<g transform="translate(0.000000,1024.000000) scale(0.100000,-0.100000)"
fill="#000000" stroke="none">
<path d="M5280 9379 c-56 -22 -100 -85 -100 -140 0 -91 84 -168 167 -154 53
10 107 47 126 88 59 123 -66 256 -193 206z"/>
<path d="M2685 9080 c-107 -13 -179 -55 -239 -143 -72 -105 -66 241 -64 -3798
l3 -3644 27 -57 c33 -70 105 -145 173 -178 l50 -25 2705 0 2705 0 57 28 c68
33 121 90 157 166 l26 56 0 3675 0 3675 -29 58 c-31 62 -102 134 -162 162 -20
9 -67 21 -103 26 -36 4 -367 7 -736 7 -627 -1 -794 -6 -673 -20 68 -8 152 -61
198 -126 90 -125 75 -373 -28 -463 -76 -67 26 -63 -1402 -63 -1253 0 -1296 0
-1334 19 -22 10 -53 33 -71 50 -54 55 -69 98 -73 216 -6 146 11 201 80 270 50
50 138 99 178 99 10 0 22 4 25 10 7 11 -1374 11 -1470 0z m1163 -432 c-2 -125
36 -194 142 -256 l45 -27 1299 -3 c1479 -3 1360 -9 1451 82 59 60 76 106 76
206 l0 69 43 6 c23 4 220 5 437 3 384 -4 395 -5 446 -27 29 -13 70 -43 92 -66
78 -84 71 240 69 -3495 l-3 -3345 -29 -53 c-31 -55 -72 -92 -134 -120 -34 -16
-201 -17 -2442 -17 -2303 0 -2407 1 -2452 18 -58 23 -133 102 -150 160 -10 34
-13 721 -13 3387 l0 3345 24 49 c29 58 74 106 127 132 49 24 167 30 636 32
l337 2 -1 -82z"/>
<path d="M3354 7835 c-4 -9 -2 -27 4 -41 21 -44 77 -22 70 28 -2 18 -10 24
-36 26 -22 2 -34 -2 -38 -13z m61 -25 c0 -18 -6 -26 -22 -28 -20 -3 -23 1 -23
28 0 27 3 31 23 28 16 -2 22 -10 22 -28z"/>
<path d="M3596 7831 c-4 -5 -2 -12 4 -16 5 -3 10 -11 10 -17 0 -7 -6 -6 -15 2
-12 10 -15 10 -15 -4 0 -10 -8 -16 -22 -15 -17 1 -19 2 -5 6 9 2 17 10 17 18
0 10 -5 11 -25 2 -32 -15 -31 -18 6 -39 51 -30 69 -24 69 21 0 39 -13 61 -24
42z m14 -61 c0 -5 -8 -10 -17 -10 -15 0 -16 2 -3 10 19 12 20 12 20 0z"/>
<path d="M3660 7831 c0 -5 9 -11 19 -14 11 -2 22 -15 24 -28 4 -19 5 -18 4 5
-2 20 -9 31 -24 37 -13 5 -23 5 -23 0z"/>
<path d="M3753 7832 c-6 -4 -13 -18 -14 -32 -4 -22 0 -25 29 -28 28 -3 32 0
32 22 0 27 -28 49 -47 38z m37 -44 c0 -4 -9 -8 -20 -8 -20 0 -28 29 -13 44 7
7 33 -21 33 -36z"/>
<path d="M3454 7816 c-3 -8 -4 -23 -1 -33 3 -12 5 -9 6 9 0 14 7 29 14 31 9 4
9 6 -1 6 -7 1 -15 -5 -18 -13z"/>
<path d="M3500 7811 c-13 -25 -13 -41 0 -41 6 0 10 9 10 20 0 12 10 24 23 30
l22 9 -22 0 c-12 1 -27 -8 -33 -18z"/>
<path d="M3820 7820 c0 -5 7 -7 15 -4 8 4 15 8 15 10 0 2 -7 4 -15 4 -8 0 -15
-4 -15 -10z"/>
<path d="M3641 7798 c-1 -24 3 -28 27 -27 22 1 23 2 5 6 -13 2 -24 13 -26 26
-4 18 -5 17 -6 -5z"/>
<path d="M3414 7291 c-48 -21 -94 -112 -94 -188 0 -55 8 -63 59 -63 59 0 67 7
37 31 -27 21 -56 77 -56 107 0 11 12 34 26 51 52 62 164 31 164 -45 0 -46 -36
-115 -63 -122 -21 -6 -21 -6 3 -13 14 -4 42 -7 62 -8 32 -1 37 2 42 27 8 33
-8 122 -29 162 -27 53 -101 82 -151 61z"/>
<path d="M3756 7191 c-14 -15 -15 -24 -6 -40 6 -12 18 -21 28 -21 16 1 16 1 0
11 -25 14 -22 48 5 59 14 6 16 9 6 9 -9 1 -24 -8 -33 -18z"/>
<path d="M3849 7188 c-6 -20 -5 -38 2 -49 6 -10 9 -4 9 19 0 17 -2 32 -5 32
-3 0 -5 -1 -6 -2z"/>
<path d="M3975 7170 c10 -34 26 -50 20 -20 -2 13 -10 28 -16 34 -8 8 -9 4 -4
-14z"/>
<path d="M4117 7183 c-13 -12 -7 -53 7 -53 9 0 12 7 9 20 -4 15 0 20 13 20 16
0 17 2 4 10 -18 12 -24 12 -33 3z"/>
<path d="M4170 7166 c0 -14 5 -28 10 -31 6 -4 10 7 10 24 0 17 -4 31 -10 31
-5 0 -10 -11 -10 -24z"/>
<path d="M4221 7160 c0 -33 1 -34 10 -11 6 16 6 28 -1 35 -7 7 -10 -1 -9 -24z"/>
<path d="M4361 7183 c0 -4 4 -17 9 -28 8 -19 9 -19 9 2 1 12 -3 25 -9 28 -5 3
-10 3 -9 -2z"/>
<path d="M3881 7166 c-10 -11 -7 -17 11 -30 12 -9 27 -16 32 -16 6 0 0 7 -12
16 -12 8 -22 19 -22 25 0 18 39 9 54 -13 16 -22 16 -22 16 -1 0 33 -56 46 -79
19z"/>
<path d="M4020 7167 c0 -7 7 -22 15 -33 14 -18 15 -17 6 8 -7 19 -7 28 2 32 7
2 4 5 -5 5 -10 1 -18 -5 -18 -12z"/>
<path d="M4066 7173 c6 -4 16 -17 23 -28 11 -19 11 -19 9 5 -2 16 -10 26 -23
28 -12 2 -16 0 -9 -5z"/>
<path d="M4262 7155 c0 -16 2 -22 5 -12 2 9 2 23 0 30 -3 6 -5 -1 -5 -18z"/>
<path d="M4401 7146 c-1 -33 1 -37 14 -26 16 14 20 25 6 15 -5 -3 -12 7 -14
22 -3 22 -4 20 -6 -11z"/>
<path d="M4437 7173 c-4 -3 -7 -11 -7 -17 0 -6 5 -5 12 2 6 6 9 14 7 17 -3 3
-9 2 -12 -2z"/>
<path d="M4310 7145 c0 -8 2 -15 4 -15 2 0 6 7 10 15 3 8 1 15 -4 15 -6 0 -10
-7 -10 -15z"/>
<path d="M4480 7140 c0 -7 268 -10 785 -10 517 0 785 3 785 10 0 7 -268 10
-785 10 -517 0 -785 -3 -785 -10z"/>
<path d="M3431 6523 c0 -16 4 -37 9 -48 6 -15 9 -8 9 28 1 26 -3 47 -9 47 -5
0 -10 -12 -9 -27z"/>
<path d="M3762 6508 c-15 -15 -15 -28 -1 -28 5 0 7 5 4 10 -3 6 4 14 17 19 14
6 17 10 8 10 -9 1 -21 -4 -28 -11z"/>
<path d="M3832 6506 c7 -8 15 -12 17 -11 5 6 -10 25 -20 25 -5 0 -4 -6 3 -14z"/>
<path d="M4032 6484 c4 -30 2 -35 -14 -31 -10 3 -16 1 -12 -4 3 -5 15 -9 27
-9 20 0 22 4 19 40 -2 22 -9 40 -14 40 -6 0 -8 -16 -6 -36z"/>
<path d="M4156 6489 c-9 -46 -8 -49 17 -49 15 0 18 3 9 8 -7 5 -10 22 -8 40 4
41 -10 42 -18 1z"/>
<path d="M4467 6485 c3 -27 0 -35 -13 -35 -12 0 -15 6 -10 28 3 15 3 21 0 14
-3 -6 -10 -10 -15 -6 -11 7 -12 -16 0 -34 8 -14 58 -13 54 1 -2 4 -3 21 -3 37
0 17 -4 30 -9 30 -4 0 -7 -16 -4 -35z"/>
<path d="M3490 6495 c0 -9 5 -15 11 -13 6 2 11 8 11 13 0 5 -5 11 -11 13 -6 2
-11 -4 -11 -13z"/>
<path d="M3883 6475 c0 -22 2 -30 4 -17 2 12 2 30 0 40 -3 9 -5 -1 -4 -23z"/>
<path d="M3785 6490 c-3 -6 1 -13 10 -16 21 -9 26 -2 10 13 -9 8 -16 9 -20 3z"/>
<path d="M3915 6490 c-3 -5 -1 -10 4 -10 6 0 11 -9 11 -20 0 -11 5 -20 10 -20
11 0 13 20 4 44 -7 18 -20 21 -29 6z"/>
<path d="M3970 6483 c0 -10 5 -25 10 -33 7 -11 10 -7 10 18 0 17 -4 32 -10 32
-5 0 -10 -8 -10 -17z"/>
<path d="M4074 6485 c-7 -17 12 -45 30 -44 7 0 6 2 -1 6 -18 7 -16 43 1 43 8
0 17 -6 19 -12 3 -8 6 -6 6 5 1 22 -47 24 -55 2z"/>
<path d="M4190 6490 c0 -5 7 -10 16 -10 8 0 12 5 9 10 -3 6 -10 10 -16 10 -5
0 -9 -4 -9 -10z"/>
<path d="M4232 6470 c0 -19 2 -27 5 -17 2 9 2 25 0 35 -3 9 -5 1 -5 -18z"/>
<path d="M4261 6483 c-13 -26 1 -45 30 -41 18 2 24 9 24 28 0 32 -39 41 -54
13z m42 -13 c4 -15 0 -20 -14 -20 -12 0 -19 7 -19 20 0 11 6 20 14 20 7 0 16
-9 19 -20z"/>
<path d="M4330 6471 c0 -17 5 -31 10 -31 6 0 10 11 10 24 0 14 -4 28 -10 31
-6 4 -10 -7 -10 -24z"/>
<path d="M4386 6473 c9 -38 11 -39 16 -3 3 21 0 30 -9 30 -10 0 -11 -8 -7 -27z"/>
<path d="M3767 6448 c2 -5 13 -8 23 -8 10 0 21 3 23 8 3 4 -8 7 -23 7 -15 0
-26 -3 -23 -7z"/>
<path d="M3845 6450 c-3 -5 -1 -10 4 -10 6 0 11 5 11 10 0 6 -2 10 -4 10 -3 0
-8 -4 -11 -10z"/>
<path d="M4530 6453 c0 -7 695 -7 785 0 22 2 -146 4 -372 5 -227 1 -413 -1
-413 -5z"/>
<path d="M3344 6431 c-15 -15 25 -21 142 -21 112 0 134 2 134 15 0 12 -21 14
-136 12 -75 -1 -137 -4 -140 -6z"/>
<path d="M3418 5943 c7 -3 16 -2 19 1 4 3 -2 6 -13 5 -11 0 -14 -3 -6 -6z"/>
<path d="M3330 5929 c0 -5 5 -7 10 -4 6 3 10 8 10 11 0 2 -4 4 -10 4 -5 0 -10
-5 -10 -11z"/>
<path d="M3570 5933 c14 -3 29 -10 33 -17 6 -7 7 -6 4 4 -2 8 -16 16 -33 17
-25 1 -26 0 -4 -4z"/>
<path d="M3323 5875 c0 -22 2 -30 4 -17 2 12 2 30 0 40 -3 9 -5 -1 -4 -23z"/>
<path d="M3610 5865 l-5 -40 -141 0 c-140 0 -140 0 -136 -22 4 -22 7 -23 138
-23 152 0 158 3 152 83 l-4 42 -4 -40z"/>
<path d="M4007 5853 c-10 -10 -8 -73 2 -73 5 0 9 18 9 40 1 42 0 44 -11 33z"/>
<path d="M4370 5850 c0 -5 4 -10 9 -10 6 0 13 5 16 10 3 6 -1 10 -9 10 -9 0
-16 -4 -16 -10z"/>
<path d="M3750 5815 c0 -19 4 -35 8 -35 4 0 6 16 4 35 -2 19 -6 35 -8 35 -2 0
-4 -16 -4 -35z"/>
<path d="M3783 5825 c7 -13 14 -20 15 -14 5 14 -6 39 -17 39 -5 0 -4 -11 2
-25z"/>
<path d="M3866 5815 c16 -24 15 -25 -4 -25 -11 0 -23 6 -25 13 -3 7 -6 5 -6
-5 -1 -13 7 -18 29 -18 22 0 30 5 30 18 0 19 -18 42 -32 42 -5 0 -1 -11 8 -25z"/>
<path d="M3906 5813 c10 -40 14 -41 14 -5 0 18 -5 32 -10 32 -6 0 -8 -11 -4
-27z"/>
<path d="M3958 5810 c2 -16 10 -30 18 -30 10 0 11 6 3 30 -6 17 -14 30 -18 30
-4 0 -6 -13 -3 -30z"/>
<path d="M4041 5818 c-5 -13 -6 -27 -3 -33 4 -5 8 -1 10 10 2 11 9 26 14 33 7
8 7 12 -1 12 -6 0 -15 -10 -20 -22z"/>
<path d="M4086 5832 c7 -4 14 -16 17 -27 4 -15 5 -14 6 8 1 20 -4 27 -16 27
-12 0 -14 -3 -7 -8z"/>
<path d="M4171 5808 c2 -28 2 -29 6 -8 3 14 10 28 17 32 7 5 5 8 -6 8 -14 0
-18 -8 -17 -32z"/>
<path d="M4226 5825 c-20 -20 -10 -45 18 -44 16 1 17 2 4 6 -22 6 -23 32 -2
40 18 7 36 -15 27 -32 -4 -6 -2 -6 6 1 16 15 3 44 -19 44 -10 0 -25 -7 -34
-15z"/>
<path d="M4310 5810 c0 -20 5 -30 15 -30 12 0 13 4 5 19 -15 29 -13 33 13 26
17 -5 19 -4 7 4 -26 19 -40 12 -40 -19z"/>
<path d="M4485 5830 c3 -5 12 -7 20 -4 9 4 18 -3 24 -17 9 -23 10 -23 10 -3 1
21 -16 34 -45 34 -9 0 -13 -4 -9 -10z"/>
<path d="M4560 5810 c0 -16 3 -30 8 -30 4 0 7 14 7 30 0 17 -3 30 -7 30 -5 0
-8 -13 -8 -30z"/>
<path d="M4733 5815 c7 -13 14 -20 15 -14 5 14 -6 39 -17 39 -5 0 -4 -11 2
-25z"/>
<path d="M4380 5820 c0 -5 7 -10 16 -10 8 0 12 5 9 10 -3 6 -10 10 -16 10 -5
0 -9 -4 -9 -10z"/>
<path d="M4462 5805 c0 -16 2 -22 5 -12 2 9 2 23 0 30 -3 6 -5 -1 -5 -18z"/>
<path d="M4611 5804 c0 -11 3 -14 6 -6 3 7 2 16 -1 19 -3 4 -6 -2 -5 -13z"/>
<path d="M4423 5795 c0 -8 4 -15 9 -15 4 0 8 7 8 15 0 8 -4 15 -8 15 -5 0 -9
-7 -9 -15z"/>
<path d="M3320 5739 c0 -19 4 -41 9 -48 6 -10 8 1 4 30 -7 55 -13 63 -13 18z"/>
<path d="M3600 5692 c0 -6 -8 -13 -17 -15 -16 -4 -16 -5 -1 -6 18 -1 34 16 24
26 -3 4 -6 1 -6 -5z"/>
<path d="M3323 5333 c-7 -3 -13 -9 -13 -14 0 -10 3606 -12 3888 -2 89 3 162
10 162 15 0 8 -4014 10 -4037 1z"/>
<path d="M3340 5160 c-12 -7 -15 -33 -14 -125 0 -64 5 -120 10 -125 5 -5 8 39
6 115 -4 146 -13 138 138 133 l95 -3 3 -122 c3 -143 15 -131 -133 -136 l-90
-3 106 -2 c79 -1 109 1 118 11 6 8 12 64 13 131 3 95 0 118 -12 126 -20 13
-220 13 -240 0z"/>
<path d="M5498 5163 c17 -2 47 -2 65 0 17 2 3 4 -33 4 -36 0 -50 -2 -32 -4z"/>
<path d="M5343 5145 c-3 -9 -3 -18 -1 -21 3 -3 8 4 11 16 6 23 -1 27 -10 5z"/>
<path d="M5601 5134 c0 -11 3 -14 6 -6 3 7 2 16 -1 19 -3 4 -6 -2 -5 -13z"/>
<path d="M5330 4994 c0 -27 5 -56 10 -64 6 -9 7 6 3 45 -7 75 -13 84 -13 19z"/>
<path d="M5610 4979 c0 -22 -5 -50 -11 -62 -10 -21 -10 -21 5 -3 14 18 23 106
11 106 -3 0 -5 -18 -5 -41z"/>
<path d="M5413 4893 c15 -2 39 -2 55 0 15 2 2 4 -28 4 -30 0 -43 -2 -27 -4z"/>
<path d="M3310 4420 c0 -7 682 -10 2025 -10 1343 0 2025 3 2025 10 0 7 -682
10 -2025 10 -1343 0 -2025 -3 -2025 -10z"/>
<path d="M3412 3971 l-2 -35 -30 29 c-16 16 -30 25 -30 19 1 -14 59 -78 65
-72 4 3 5 26 2 49 -3 38 -4 39 -5 10z"/>
<path d="M3739 3988 c-1 -7 -2 -26 -3 -41 -2 -15 1 -30 6 -33 4 -3 8 15 8 40
0 25 -2 46 -5 46 -3 0 -5 -6 -6 -12z"/>
<path d="M4144 3987 c5 -14 1 -18 -15 -15 -29 4 -47 -25 -30 -46 8 -9 21 -15
30 -15 13 1 13 2 -1 6 -20 5 -25 43 -7 43 7 0 18 -8 25 -17 12 -17 13 -16 14
7 0 14 -5 32 -11 40 -9 13 -10 12 -5 -3z"/>
<path d="M3988 3973 c-28 -7 -21 -22 9 -20 32 2 46 -29 16 -36 -15 -3 -14 -4
2 -3 15 1 20 8 20 31 0 30 -12 38 -47 28z"/>
<path d="M4313 3968 c-16 -27 4 -68 32 -68 6 1 2 5 -7 11 -10 5 -18 21 -18 35
0 33 34 29 36 -4 2 -31 14 -41 14 -11 0 41 -39 65 -57 37z"/>
<path d="M4478 3950 c6 -42 19 -46 14 -4 -2 19 -7 34 -11 34 -4 0 -6 -14 -3
-30z"/>
<path d="M3451 3951 c-15 -27 -14 -41 3 -41 9 0 12 7 9 20 -6 23 15 27 36 8
10 -11 12 -9 9 7 -5 28 -44 32 -57 6z"/>
<path d="M3592 3940 c0 -19 2 -27 5 -17 2 9 2 25 0 35 -3 9 -5 1 -5 -18z"/>
<path d="M3641 3941 c-1 -27 2 -32 11 -23 8 8 8 17 0 34 -10 22 -11 21 -11
-11z"/>
<path d="M3775 3960 c3 -5 8 -10 11 -10 2 0 4 5 4 10 0 6 -5 10 -11 10 -5 0
-7 -4 -4 -10z"/>
<path d="M3820 3953 c0 -10 5 -25 10 -33 8 -12 10 -9 10 12 0 15 -4 30 -10 33
-5 3 -10 -2 -10 -12z"/>
<path d="M3864 3955 c-10 -24 4 -45 28 -44 17 1 18 2 6 6 -10 2 -18 14 -18 25
0 15 5 19 20 15 11 -3 20 -1 20 4 0 15 -50 10 -56 -6z"/>
<path d="M4175 3960 c-3 -5 -2 -10 4 -10 5 0 13 5 16 10 3 6 2 10 -4 10 -5 0
-13 -4 -16 -10z"/>
<path d="M4214 3945 c-5 -20 -11 -25 -25 -22 -11 3 -19 1 -19 -4 0 -5 12 -8
28 -7 15 1 37 -4 49 -10 36 -20 44 -15 41 26 -3 34 -6 37 -35 40 -28 3 -33 -1
-39 -23z m56 5 c0 -5 -8 -10 -17 -11 -14 0 -13 -2 5 -9 12 -5 22 -14 22 -20 0
-13 -6 -13 -31 0 -26 14 -25 50 1 50 11 0 20 -4 20 -10z"/>
<path d="M4390 3940 c0 -30 13 -40 25 -20 4 6 1 17 -5 25 -10 13 -8 15 13 15
20 0 27 -6 30 -27 4 -26 4 -26 6 5 1 30 -1 32 -34 32 -32 0 -35 -2 -35 -30z"/>
<path d="M3525 3950 c-4 -6 -1 -17 5 -25 14 -17 40 -20 40 -5 0 5 -7 7 -15 4
-9 -4 -15 0 -15 9 0 8 6 18 13 20 7 3 6 6 -5 6 -9 1 -20 -4 -23 -9z"/>
<path d="M3940 3936 c0 -14 5 -26 10 -26 6 0 10 9 10 19 0 11 -4 23 -10 26 -6
4 -10 -5 -10 -19z"/>
<path d="M3320 3470 c0 -35 3 -40 23 -39 16 1 18 2 5 6 -12 3 -18 14 -18 34 0
35 13 37 34 7 13 -18 16 -19 16 -6 0 17 -28 38 -49 38 -6 0 -11 -18 -11 -40z"/>
<path d="M3400 3475 c0 -19 4 -35 9 -35 4 0 6 11 3 25 -2 15 0 25 7 25 7 0 9
5 6 10 -13 21 -25 9 -25 -25z"/>
<path d="M3524 3496 c-14 -36 23 -83 46 -60 8 8 4 10 -12 10 -18 -1 -24 5 -26
28 -3 26 -1 28 22 24 14 -3 23 -1 20 3 -8 14 -44 10 -50 -5z"/>
<path d="M3612 3493 c-5 -10 -6 -27 -1 -38 7 -18 8 -17 8 7 1 14 6 28 13 30 9
3 9 6 1 11 -7 4 -16 0 -21 -10z"/>
<path d="M3655 3500 c3 -5 8 -10 11 -10 2 0 4 5 4 10 0 6 -5 10 -11 10 -5 0
-7 -4 -4 -10z"/>
<path d="M3695 3490 c-18 -20 -18 -21 2 -41 31 -31 63 -18 63 27 0 25 -4 34
-17 34 -13 0 -14 -3 -5 -12 15 -15 16 -45 1 -54 -6 -3 -18 1 -27 10 -14 13
-14 20 -4 36 16 26 10 25 -13 0z"/>
<path d="M3877 3503 c-4 -3 -6 -22 -6 -42 2 -34 2 -34 6 -6 3 17 9 36 15 43
11 12 -3 18 -15 5z"/>
<path d="M4047 3478 c8 -44 13 -48 13 -10 0 17 -4 34 -10 37 -6 4 -7 -6 -3
-27z"/>
<path d="M4117 3503 c26 -5 38 -30 22 -49 -14 -17 -37 -7 -42 19 l-4 22 -2
-21 c-2 -42 49 -55 63 -17 12 29 -4 53 -32 52 -22 -1 -23 -2 -5 -6z"/>
<path d="M4225 3474 c6 -49 15 -56 15 -11 0 20 -5 39 -10 42 -6 4 -8 -8 -5
-31z"/>
<path d="M4273 3503 c-19 -7 -16 -62 3 -70 8 -3 20 -1 26 5 7 7 5 10 -7 9 -23
-2 -28 40 -6 53 17 10 5 12 -16 3z"/>
<path d="M3460 3481 c13 -26 13 -29 -7 -34 -11 -3 -7 -5 10 -6 29 -1 36 16 15
38 -11 11 -10 13 5 8 9 -4 17 -2 17 3 0 6 -11 10 -25 10 -22 0 -24 -3 -15 -19z"/>
<path d="M3780 3484 c0 -14 3 -14 15 -4 8 7 15 14 15 16 0 2 -7 4 -15 4 -8 0
-15 -7 -15 -16z"/>
<path d="M4180 3478 c0 -7 5 -20 10 -28 8 -12 10 -11 10 7 0 12 -4 25 -10 28
-5 3 -10 0 -10 -7z"/>
<path d="M4295 3481 c-3 -5 -1 -12 5 -16 5 -3 10 1 10 9 0 18 -6 21 -15 7z"/>
<path d="M3658 3453 c5 -21 7 -23 10 -9 2 10 0 22 -6 28 -6 6 -7 0 -4 -19z"/>
<path d="M3820 3465 c7 -9 15 -13 17 -11 7 7 -7 26 -19 26 -6 0 -6 -6 2 -15z"/>
<path d="M3900 3470 c8 -5 20 -10 25 -10 6 0 3 5 -5 10 -8 5 -19 10 -25 10 -5
0 -3 -5 5 -10z"/>
<path d="M4350 3468 c0 -10 306 -12 1505 -10 988 1 1505 6 1505 12 0 7 -515
10 -1505 10 -1197 0 -1505 -3 -1505 -12z"/>
<path d="M3785 3450 c3 -5 8 -10 11 -10 2 0 4 5 4 10 0 6 -5 10 -11 10 -5 0
-7 -4 -4 -10z"/>
<path d="M4066 3045 c-47 -17 -101 -67 -129 -120 -29 -57 -30 -165 0 -220 22
-42 58 -78 108 -111 29 -18 55 -19 680 -19 647 0 650 0 690 22 138 74 175 242
82 365 -18 24 -53 54 -77 68 l-45 25 -635 2 c-522 2 -642 0 -674 -12z m593
-184 c26 -37 27 -65 1 -91 -45 -45 -120 -11 -120 54 0 66 81 91 119 37z m101
-16 c0 -8 -7 -15 -15 -15 -10 0 -17 -14 -21 -40 -10 -63 -24 -58 -24 9 l0 61
30 0 c20 0 30 -5 30 -15z m100 -4 c18 -35 12 -70 -14 -83 -31 -14 -53 -5 -67
25 -24 52 54 107 81 58z m173 13 c23 -7 25 -104 2 -104 -11 0 -15 12 -15 46 0
59 -24 55 -28 -5 -4 -53 -23 -50 -36 5 -5 21 -11 41 -13 44 -8 10 -23 -27 -23
-57 0 -23 -5 -33 -15 -33 -12 0 -14 11 -11 53 2 28 4 53 5 54 2 4 118 1 134
-3z"/>
<path d="M4586 2857 c-22 -16 -18 -65 6 -81 14 -8 22 -6 40 11 18 19 20 27 12
50 -11 32 -32 39 -58 20z"/>
<path d="M4800 2810 c0 -24 26 -38 42 -22 8 8 8 15 -2 27 -18 21 -40 19 -40
-5z"/>
<path d="M3683 2272 c-237 -1 -373 -6 -373 -12 0 -11 3884 -15 3989 -4 33 4
61 10 61 13 0 6 -2935 9 -3677 3z"/>
<path d="M5272 1898 c-7 -7 -12 -24 -12 -38 0 -34 17 -50 52 -50 37 0 57 38
40 75 -13 27 -58 35 -80 13z"/>
<path d="M8943 8691 c-60 -28 -76 -64 -81 -183 l-4 -98 611 0 611 0 0 99 c0
85 -3 102 -23 132 -47 70 -36 69 -582 69 -460 0 -493 -2 -532 -19z"/>
<path d="M1002 8367 c-1 -173 -6 -283 -12 -285 -6 -2 -10 -17 -10 -33 0 -22 7
-32 26 -41 24 -11 29 -10 53 18 24 28 244 186 319 230 31 18 42 47 22 59 -13
8 -28 -1 -200 -120 -83 -58 -153 -105 -156 -105 -2 0 -3 3 -3 8 1 4 1 130 0
280 -1 252 -2 272 -18 272 -17 0 -18 -21 -21 -283z"/>
<path d="M9020 8170 c0 -6 113 -10 320 -10 207 0 320 4 320 10 0 6 -113 10
-320 10 -207 0 -320 -4 -320 -10z"/>
<path d="M9022 8045 c8 -8 269 -12 303 -4 17 4 -46 7 -139 8 -93 0 -167 -1
-164 -4z"/>
<path d="M9020 7920 c0 -6 60 -10 159 -10 96 0 162 4 166 10 4 7 -52 10 -159
10 -104 0 -166 -4 -166 -10z"/>
<path d="M8862 7541 c3 -236 4 -251 24 -278 12 -15 36 -37 55 -48 32 -19 55
-20 469 -23 511 -4 568 -1 611 35 60 51 63 65 67 326 l4 237 -616 0 -617 0 3
-249z m728 65 c0 -2 -9 -25 -20 -51 -11 -26 -20 -69 -20 -96 0 -37 -4 -49 -15
-49 -12 0 -15 13 -15 60 0 33 -4 60 -10 60 -5 0 -10 5 -10 10 0 6 7 10 16 10
9 0 14 6 11 13 -8 21 13 47 38 47 14 0 25 -2 25 -4z m-320 -50 c15 -29 1 -53
-72 -124 l-44 -43 -58 61 -58 61 23 25 23 24 36 -35 35 -35 39 45 c43 51 57
55 76 21z m454 -18 c21 -30 20 -81 -1 -100 -54 -46 -120 -17 -130 58 -4 35 -2
41 18 51 42 20 96 16 113 -9z m166 -4 c16 -40 13 -114 -4 -114 -11 0 -16 15
-18 53 -3 50 -4 52 -33 52 -29 0 -30 -2 -33 -52 -2 -38 -7 -53 -18 -53 -11 0
-14 16 -14 70 l0 70 55 0 c50 0 56 -2 65 -26z"/>
<path d="M9642 7528 c-14 -14 -16 -57 -2 -78 15 -24 64 -1 68 33 6 47 -36 75
-66 45z"/>
<path d="M9782 6560 c-19 -18 -22 -31 -22 -99 l0 -78 46 -7 c26 -3 98 -6 161
-6 l115 0 -3 86 c-5 118 -13 124 -163 124 -99 0 -115 -2 -134 -20z"/>
<path d="M1415 6524 c-210 -181 -277 -248 -337 -334 -15 -21 -19 -23 -27 -10
-7 9 -11 10 -11 3 0 -6 4 -15 10 -18 6 -4 5 -11 -3 -19 -6 -8 -16 -11 -21 -8
-6 3 -21 7 -35 9 -15 1 -33 3 -41 4 -8 1 -18 7 -22 13 -5 8 -8 7 -8 -1 0 -27
-30 -11 -63 35 -64 87 -253 256 -218 195 6 -10 40 -47 76 -83 36 -36 65 -69
65 -74 0 -5 -22 -6 -50 -3 -45 6 -50 4 -50 -14 0 -19 6 -20 61 -18 58 2 64 1
90 -29 29 -32 38 -62 19 -62 -5 0 -10 4 -10 9 0 6 -9 9 -19 8 -16 -1 -18 -7
-14 -32 4 -27 2 -31 -19 -29 -12 1 -31 5 -40 9 -9 4 -23 3 -30 -1 -7 -4 -21
-9 -30 -9 -48 -4 -31 -24 62 -73 71 -38 137 -53 225 -51 39 0 103 -2 143 -6
86 -9 142 4 222 48 61 34 160 130 160 155 0 12 -5 9 -17 -8 -31 -44 -46 -59
-55 -54 -5 3 -3 11 5 17 10 8 13 23 10 45 -6 35 -23 44 -23 12 0 -20 -11 -26
-24 -13 -4 4 -32 9 -62 10 -43 2 -54 -1 -54 -13 0 -9 -6 -14 -12 -11 -7 2 -12
10 -10 16 1 6 -11 11 -28 11 -16 0 -30 -3 -30 -7 0 -5 -20 -8 -45 -8 -42 0
-44 1 -40 24 2 13 10 28 17 33 7 4 73 8 146 8 122 0 133 2 130 18 -3 15 -19
18 -123 22 l-120 5 130 129 c72 71 140 135 153 143 12 9 22 19 22 24 0 17 -25
9 -55 -17z m-324 -411 c-12 -20 -14 -14 -5 12 4 9 9 14 11 11 3 -2 0 -13 -6
-23z m-207 -19 c3 -8 2 -12 -4 -9 -6 3 -10 10 -10 16 0 14 7 11 14 -7z m-174
-44 c13 -8 13 -10 -2 -10 -9 0 -20 5 -23 10 -8 13 5 13 25 0z"/>
<path d="M9117 6379 c-14 -8 -17 -24 -17 -82 0 -63 -3 -75 -22 -92 -15 -12
-18 -20 -10 -23 14 -4 16 -32 2 -32 -5 0 -10 -3 -10 -7 0 -5 34 -9 75 -11 l75
-3 0 30 c0 18 -9 38 -20 49 -16 15 -22 37 -27 91 -6 76 -17 96 -46 80z"/>
<path d="M900 6343 c0 -4 8 -34 17 -66 14 -50 18 -56 24 -39 6 15 2 37 -11 67
-17 41 -30 57 -30 38z"/>
<path d="M1266 6175 c-3 -8 -1 -15 4 -15 6 0 10 7 10 15 0 8 -2 15 -4 15 -2 0
-6 -7 -10 -15z"/>
<path d="M1516 6163 c-6 -14 -5 -15 5 -6 7 7 10 15 7 18 -3 3 -9 -2 -12 -12z"/>
<path d="M1330 6160 c0 -5 6 -10 14 -10 8 0 18 5 21 10 3 6 -3 10 -14 10 -12
0 -21 -4 -21 -10z"/>
<path d="M1461 6151 c-7 -5 -11 -15 -9 -22 3 -10 8 -7 17 9 13 24 12 26 -8 13z"/>
<path d="M590 6121 c0 -6 4 -13 10 -16 6 -3 7 1 4 9 -7 18 -14 21 -14 7z"/>
<path d="M629 6078 c11 -15 41 -15 41 -1 0 3 -6 3 -14 0 -7 -3 -20 0 -27 6
-11 10 -11 9 0 -5z"/>
<path d="M8971 5826 c-24 -29 -32 -252 -29 -848 l3 -608 185 -2 185 -3 5 624
5 623 26 -26 c15 -14 29 -40 33 -57 3 -18 6 -265 6 -551 0 -458 2 -519 15
-525 9 -3 19 -2 23 2 10 9 9 1041 -1 1087 -9 42 -49 96 -82 108 -18 7 -23 21
-33 90 -7 45 -14 86 -17 91 -4 5 -75 9 -159 9 -119 0 -156 -3 -165 -14z"/>
<path d="M369 5387 c-48 -29 -84 -74 -96 -117 -8 -31 -10 -104 -5 -212 l2 -38
775 0 775 0 0 108 c0 59 -5 124 -11 145 -12 46 -66 110 -86 103 -8 -3 -12 -2
-9 3 17 28 -58 31 -677 31 l-632 0 -36 -23z m25 -15 c2 -4 -4 -8 -14 -8 -10 0
-16 4 -14 8 3 4 9 8 14 8 5 0 11 -4 14 -8z m846 -112 c0 -5 -2 -10 -4 -10 -3
0 -8 5 -11 10 -3 6 -1 10 4 10 6 0 11 -4 11 -10z"/>
<path d="M1277 4268 c-14 -13 -73 -76 -132 -141 l-107 -117 -96 100 c-100 104
-124 116 -155 83 -15 -18 -20 -35 -18 -65 0 -9 53 -70 117 -137 157 -162 140
-164 320 25 186 197 196 212 154 254 -26 26 -53 25 -83 -2z"/>
<path d="M8940 3110 l0 -1150 190 0 190 0 0 1150 0 1150 -190 0 -190 0 0
-1150z"/>
<path d="M585 2263 c-78 -20 -120 -123 -78 -194 62 -104 233 -56 233 65 0 53
-17 85 -59 113 -33 22 -55 26 -96 16z"/>
<path d="M911 2252 c-78 -39 -91 -144 -26 -209 25 -25 42 -33 69 -33 45 0 87
21 115 56 43 54 17 155 -48 189 -39 20 -68 19 -110 -3z"/>
<path d="M1274 2256 c-17 -8 -40 -26 -52 -41 -42 -53 -19 -160 39 -190 117
-61 240 77 166 186 -38 57 -90 72 -153 45z"/>
<path d="M10041 1980 c-28 -24 -40 -25 -84 -4 -32 15 -38 15 -85 0 -48 -16
-52 -16 -78 1 -27 17 -28 17 -21 0 4 -10 7 -22 7 -27 0 -5 7 -15 15 -23 13
-13 22 -13 75 1 49 13 64 14 80 4 18 -11 100 -18 100 -8 0 2 7 20 15 40 17 40
11 45 -24 16z"/>
<path d="M9259 1853 c-23 -4 -28 -10 -34 -50 -5 -33 -3 -48 7 -54 11 -7 11 -9
-1 -9 -8 0 -11 -6 -7 -16 4 -9 2 -22 -3 -28 -5 -6 -11 -22 -13 -36 -3 -25 -4
-25 -96 -25 l-92 0 0 -27 c0 -44 17 -78 40 -78 17 0 20 -6 20 -46 0 -61 14
-84 51 -84 35 0 49 27 49 96 0 37 3 44 19 44 26 0 27 1 50 115 24 113 24 115
10 95 -9 -12 -10 -12 -5 3 3 10 6 24 6 30 0 7 5 6 11 -3 8 -11 9 -6 5 23 -3
22 -1 35 5 32 5 -4 9 1 9 9 0 9 -1 15 -2 15 -2 -1 -15 -4 -29 -6z"/>
<path d="M9875 1668 c14 -70 37 -138 45 -138 5 0 14 19 20 43 6 23 15 58 21
77 13 51 14 50 -42 50 l-51 0 7 -32z"/>
</g>
</svg>
