<?xml version="1.0" standalone="no"?>
<!DOCTYPE svg PUBLIC "-//W3C//DTD SVG 20010904//EN"
 "http://www.w3.org/TR/2001/REC-SVG-20010904/DTD/svg10.dtd">
<svg version="1.0" xmlns="http://www.w3.org/2000/svg"
 width="1024.000000pt" height="1024.000000pt" viewBox="0 0 1024.000000 1024.000000"
 preserveAspectRatio="xMidYMid meet">

<g transform="translate(0.000000,1024.000000) scale(0.100000,-0.100000)"
fill="#000000" stroke="none">
<path d="M5031 8729 c-82 -12 -192 -51 -259 -92 -30 -17 -84 -64 -121 -104
-103 -110 -163 -238 -179 -385 l-7 -63 -45 -6 c-70 -10 -111 -32 -174 -92 -94
-89 -77 -87 -620 -87 -259 0 -508 -4 -553 -10 -149 -17 -256 -91 -317 -219
l-31 -66 -5 -802 c-3 -441 -8 -804 -11 -807 -3 -4 -17 11 -31 31 -39 60 -196
215 -278 276 -247 183 -580 303 -944 338 -155 15 -162 12 -171 -77 -13 -118 1
-447 24 -578 42 -236 154 -507 287 -693 77 -107 209 -246 307 -322 l67 -53
-60 -64 c-68 -73 -103 -136 -126 -227 -26 -100 -11 -232 40 -348 6 -13 -10
-21 -91 -44 -117 -33 -216 -71 -321 -124 -100 -51 -124 -73 -116 -109 31 -134
135 -361 214 -464 71 -93 235 -246 316 -294 156 -92 323 -147 493 -163 98 -9
250 -1 331 18 74 17 70 25 67 -128 -1 -77 -5 -142 -9 -146 -3 -3 -28 1 -55 10
-157 54 -348 40 -502 -36 -139 -69 -263 -210 -314 -358 -24 -69 -34 -241 -18
-326 18 -100 84 -219 168 -305 40 -41 73 -76 73 -77 0 -2 -11 -1 -25 3 -14 3
-45 3 -70 -1 -36 -5 -48 -12 -60 -35 -20 -38 -19 -46 5 -70 20 -20 33 -20
3203 -20 2864 0 3185 2 3205 16 32 22 29 67 -5 94 -25 20 -37 21 -175 18 -81
-2 -148 -1 -148 2 0 3 17 15 38 27 61 35 160 132 216 210 l52 74 84 3 c116 4
188 32 258 102 29 30 65 79 80 111 23 50 27 71 27 148 0 78 -4 97 -28 147 -48
99 -144 175 -244 196 l-38 8 -6 99 c-3 60 -13 116 -23 140 -21 50 -78 110
-131 138 -38 21 -53 22 -382 25 l-343 3 0 167 0 167 105 -3 c58 -2 144 1 192
8 98 13 300 76 370 116 158 89 235 147 334 251 225 235 354 536 385 894 5 69
4 79 -14 97 -28 28 -183 76 -328 103 -66 12 -121 23 -123 25 -2 2 52 91 119
199 67 108 127 212 133 231 21 69 -42 176 -113 190 -28 6 -31 10 -25 33 18 69
17 128 -4 170 -25 49 -70 91 -114 108 -40 14 -108 16 -141 3 -14 -5 -26 -7
-26 -5 0 3 64 107 141 232 220 352 447 731 460 767 17 47 4 101 -34 141 -28
30 -237 164 -337 217 -47 25 -107 23 -152 -5 -40 -24 -85 -93 -341 -522 -221
-371 -486 -805 -492 -805 -2 0 -4 363 -4 808 -1 536 -5 820 -12 847 -42 157
-165 263 -329 285 -41 5 -296 10 -566 10 -564 0 -545 -2 -634 85 -56 55 -116
88 -181 100 l-36 7 -6 66 c-11 123 -70 258 -157 359 -44 51 -143 125 -205 154
-113 53 -262 75 -384 58z m277 -147 c106 -41 228 -143 268 -226 l15 -31 -22
30 c-40 52 -112 115 -179 155 -226 136 -539 64 -692 -157 -50 -74 -79 -167
-86 -278 -6 -93 -7 -96 -13 -50 -10 63 4 176 31 247 72 194 246 323 455 341
58 4 171 -11 223 -31z m-127 -368 c27 -7 80 -71 88 -105 12 -55 -3 -100 -45
-136 -49 -43 -94 -51 -152 -27 -66 28 -95 73 -90 142 4 43 11 59 39 88 47 48
86 58 160 38z m-656 -270 c41 -19 57 -48 19 -34 -80 31 -199 -10 -225 -77 -5
-14 -17 -23 -30 -23 -76 0 -150 -52 -170 -121 -14 -47 -24 -43 -21 8 5 70 48
115 136 143 22 7 60 32 85 55 25 23 55 47 66 53 29 16 102 14 140 -4z m844
-33 c-12 -22 -40 -53 -61 -67 -40 -28 -124 -55 -168 -53 l-25 1 25 8 c14 4 43
13 65 19 57 15 130 66 156 107 29 48 36 35 8 -15z m484 38 c12 -6 42 -31 67
-54 31 -30 62 -48 100 -59 58 -16 87 -39 114 -93 25 -50 20 -75 -7 -31 -36 59
-101 98 -166 98 -19 0 -30 8 -39 28 -6 16 -27 39 -45 53 -27 20 -43 24 -102
24 -38 0 -79 -4 -90 -9 -18 -8 -18 -7 -5 7 40 43 125 60 173 36z m-1881 -577
c7 -119 29 -171 98 -236 94 -88 8 -81 1035 -84 1031 -3 974 -7 1066 76 77 69
102 126 107 245 l4 97 327 0 c351 -1 369 -3 436 -54 19 -15 47 -50 61 -79 l26
-51 4 -1479 c4 -1440 3 -1481 -15 -1523 -11 -24 -33 -63 -50 -88 -17 -25 -31
-47 -31 -50 0 -5 -66 -113 -208 -341 -131 -211 -152 -245 -217 -345 -34 -52
-66 -108 -72 -125 l-10 -30 -848 -3 c-752 -2 -851 -4 -866 -18 -26 -24 -29
-51 -7 -79 l19 -25 825 0 c638 0 824 -3 824 -12 0 -7 -38 -125 -84 -263 -87
-256 -170 -559 -164 -595 3 -19 19 -12 158 68 l155 90 12 -74 c15 -95 39 -176
69 -236 13 -26 24 -50 24 -53 0 -3 -748 -5 -1661 -5 -1216 0 -1672 3 -1700 11
-52 16 -108 64 -130 113 -18 40 -19 131 -19 2561 0 2441 1 2521 19 2561 22 48
75 94 128 111 26 8 144 12 359 12 l321 1 5 -98z m4602 -273 c146 -94 141 -90
116 -122 l-21 -26 -51 30 c-96 57 -208 131 -208 138 0 13 31 51 42 51 6 0 61
-32 122 -71z m-203 -107 c13 -10 67 -44 119 -75 53 -31 115 -74 140 -96 l44
-39 -39 -63 c-21 -35 -40 -66 -41 -68 -3 -3 -171 96 -278 164 -32 20 -60 43
-63 51 -5 14 73 144 87 144 4 0 18 -8 31 -18z m-16 -338 c91 -58 165 -110 165
-117 0 -10 -140 -247 -145 -247 -14 0 -340 200 -343 211 -2 5 14 38 35 72 22
34 57 90 79 124 21 35 40 63 42 63 1 0 76 -48 167 -106z m-6770 -154 c221 -38
344 -78 525 -171 252 -129 443 -309 565 -532 l37 -68 2 -152 c1 -197 -6 -369
-15 -360 -27 29 -90 122 -94 138 -2 11 -9 57 -15 101 -6 45 -21 126 -35 180
-25 104 -47 137 -85 127 -38 -10 -42 -36 -19 -143 11 -56 19 -106 17 -111 -3
-9 -196 232 -241 302 -10 15 -24 67 -32 117 -23 142 -54 265 -72 285 -11 12
-28 17 -47 15 -27 -3 -31 -7 -34 -36 -2 -18 4 -69 13 -113 9 -44 15 -82 13
-84 -2 -2 -38 36 -80 84 -165 186 -250 277 -271 288 -34 19 -55 15 -72 -11
-22 -33 -15 -45 99 -169 161 -177 346 -389 434 -497 120 -147 113 -135 72
-126 -85 18 -366 66 -386 66 -12 0 -32 -8 -44 -18 -28 -23 -21 -68 13 -81 21
-8 363 -72 457 -86 107 -15 139 -44 285 -255 32 -47 75 -106 97 -131 35 -43
38 -52 38 -108 0 -57 -10 -76 -26 -50 -13 21 -112 78 -171 98 -132 44 -279 47
-375 7 -27 -12 -35 -11 -65 8 -120 74 -297 246 -391 379 -121 171 -218 433
-257 695 -17 106 -29 389 -19 416 8 21 36 20 179 -4z m6497 -174 c150 -99 162
-107 151 -115 -5 -3 -13 -15 -17 -26 -4 -10 -42 -76 -85 -145 -70 -114 -163
-269 -327 -545 -32 -55 -77 -118 -99 -140 -36 -36 -119 -85 -145 -85 -6 0 -10
78 -10 220 l0 220 195 320 c107 176 200 331 207 345 6 14 12 25 14 25 1 0 53
-33 116 -74z m359 -532 l24 -27 -25 16 c-41 25 -65 28 -86 11 -18 -14 -18 -15
5 -4 46 23 43 -5 -11 -88 -29 -45 -55 -82 -58 -82 -3 0 -16 9 -30 19 l-24 19
19 35 c10 19 34 56 52 81 29 41 38 46 71 46 29 0 45 -7 63 -26z m-230 -275
c66 -39 128 -79 139 -88 21 -17 4 -45 -416 -692 -27 -42 -65 -103 -86 -135
-83 -134 -240 -382 -363 -572 -17 -26 -68 -108 -115 -182 -121 -194 -380 -580
-389 -580 -7 0 -116 59 -209 114 l-42 26 63 102 c35 57 151 243 257 413 106
171 216 348 245 395 79 127 249 399 527 842 136 218 251 404 254 413 3 8 8 15
11 15 3 0 59 -32 124 -71z m371 -26 c36 -32 49 -8 -310 -563 -139 -214 -167
-258 -354 -555 -41 -66 -105 -168 -143 -227 -37 -60 -69 -108 -72 -108 -2 0
-13 5 -23 10 -19 10 -18 13 12 63 17 28 75 120 128 202 54 83 137 213 185 290
49 77 122 191 162 253 41 62 77 121 80 130 4 9 52 87 108 172 176 270 175 267
139 303 -24 24 -24 26 -7 36 27 16 74 13 95 -6z m-6195 -597 c5 -4 9 -67 11
-139 l3 -132 -41 -42 c-40 -43 -41 -43 -67 -26 -24 16 -120 24 -362 32 -21 1
-23 4 -16 39 21 114 140 225 285 264 64 18 172 20 187 4z m191 -85 c45 -36 92
-90 92 -105 0 -10 -120 -7 -141 4 -16 9 -19 22 -19 75 0 36 4 65 9 65 5 0 32
-18 59 -39z m6128 3 l94 -27 0 -41 c0 -46 -38 -219 -69 -313 -66 -202 -190
-389 -311 -468 -76 -49 -220 -115 -302 -139 -71 -20 -237 -46 -300 -46 l-48 0
36 58 c20 31 49 71 64 87 15 17 30 38 33 48 6 17 70 100 138 180 l26 30 121
-32 c129 -33 160 -32 182 9 26 48 -14 81 -142 120 l-77 23 71 81 c101 115 122
132 223 183 104 52 135 77 135 109 0 50 -56 68 -125 40 l-33 -14 39 51 c22 29
42 63 46 76 5 22 9 23 55 18 27 -4 92 -18 144 -33z m-5996 -221 c3 -3 5 -50 5
-106 0 -84 -4 -110 -22 -150 l-22 -47 -33 33 c-51 52 -173 188 -176 198 -2 5
15 28 37 49 l41 40 83 -6 c45 -4 84 -9 87 -11z m-179 -321 c11 -19 10 -24 -7
-37 -97 -75 -215 -107 -317 -86 -90 19 -216 90 -192 108 6 5 71 53 145 109 74
55 142 109 150 119 14 17 21 11 112 -86 53 -57 103 -114 109 -127z m-448 199
c16 -6 6 -17 -56 -64 -41 -31 -78 -57 -84 -57 -10 0 -27 45 -38 98 l-7 32 84
-1 c46 0 91 -4 101 -8z m-201 -356 c-2 -14 4 -39 17 -61 12 -19 19 -39 16 -43
-2 -5 -35 -11 -72 -14 -126 -12 -214 -27 -241 -39 -36 -17 -42 -66 -12 -93 20
-18 26 -18 193 -2 94 10 192 17 216 17 44 0 143 -31 216 -68 22 -11 96 -30
164 -42 68 -13 118 -26 110 -30 -8 -3 -61 -19 -119 -34 -134 -36 -167 -50
-175 -76 -11 -35 3 -69 31 -76 29 -8 44 -4 289 61 94 24 176 45 183 45 19 0
17 -164 -3 -184 -24 -23 -157 -84 -222 -102 -74 -19 -235 -20 -333 0 -211 41
-406 158 -558 334 -57 66 -114 177 -128 251 -6 28 -3 31 47 57 65 32 163 68
279 99 108 30 108 30 102 0z m821 -185 c3 -13 0 -20 -10 -20 -8 0 -12 4 -9 9
8 12 -14 8 -39 -7 -18 -10 -18 -11 -2 -12 9 0 17 5 17 11 0 5 4 8 10 4 5 -3 8
-11 6 -18 -1 -7 -1 -9 1 -4 9 15 33 6 33 -13 0 -11 -4 -20 -10 -20 -14 0 -120
53 -120 60 0 4 26 11 58 17 31 6 58 11 58 12 1 0 4 -8 7 -19z m4087 -692 l105
-63 -81 -6 c-89 -7 -125 -23 -181 -81 -64 -66 -77 -115 -82 -293 l-3 -160 -49
-38 c-43 -33 -51 -36 -69 -25 -13 8 -18 19 -14 28 4 8 28 76 54 150 26 74 70
196 98 270 27 74 60 168 73 208 13 39 28 72 33 72 6 0 58 -28 116 -62z m337
-65 c-3 -2 -17 -3 -31 -1 l-25 3 27 42 27 43 3 -41 c2 -23 1 -43 -1 -46z
m1093 -141 c36 -17 83 -77 77 -96 -3 -8 -229 -12 -738 -14 -728 -3 -879 0
-879 20 0 19 43 70 74 89 30 18 61 19 731 19 647 0 703 -1 735 -18z m78 -439
c-4 -215 -4 -219 -36 -312 -36 -105 -84 -192 -145 -266 -153 -182 -344 -279
-580 -292 -337 -19 -654 167 -788 463 -55 121 -69 207 -69 427 l0 197 811 0
811 0 -4 -217z m-5717 133 c169 -51 332 -222 355 -372 l6 -41 -128 -11 c-165
-15 -184 -15 -184 1 0 31 -60 95 -110 118 -32 15 -52 30 -55 43 -17 81 -45
247 -45 266 0 22 2 22 58 16 31 -4 78 -13 103 -20z m-245 -147 l31 -144 -21
-17 c-11 -9 -33 -26 -48 -38 -15 -11 -33 -36 -39 -55 l-13 -35 -158 0 c-87 0
-158 4 -158 8 0 4 7 34 15 65 38 145 135 265 265 331 41 20 78 35 84 33 5 -2
24 -68 42 -148z m6163 41 c50 -25 105 -89 119 -139 40 -132 -51 -274 -194
-300 -57 -11 -66 -8 -56 20 5 13 27 27 60 38 62 21 95 49 122 106 26 53 25
101 -1 145 -24 39 -75 87 -101 96 -23 7 -25 54 -3 54 9 0 33 -9 54 -20z m-59
-234 c-15 -40 -23 -26 -15 26 7 37 9 40 17 23 6 -13 5 -31 -2 -49z m-5496
-208 c-25 -144 -100 -261 -225 -354 -26 -19 -51 -34 -56 -34 -11 0 -40 86 -74
219 l-23 88 26 32 c15 17 29 40 33 51 5 17 17 20 108 23 56 1 128 4 159 5 l58
2 -6 -32z m-690 -1 c14 -59 110 -127 178 -127 l33 0 27 -102 c15 -57 24 -106
20 -110 -16 -16 -187 -21 -243 -8 -128 30 -219 92 -274 185 -21 36 -65 155
-65 177 0 4 72 8 159 8 158 0 159 0 165 -23z"/>
<path d="M3630 6719 c-48 -18 -49 -23 -51 -434 l-1 -387 23 -23 c24 -23 27
-23 334 -29 171 -3 336 -2 368 3 94 13 91 4 97 295 l5 253 51 59 c28 32 56 69
63 81 17 33 13 92 -9 128 -40 64 -46 65 -472 64 -210 0 -394 -5 -408 -10z
m778 -112 l22 -24 -22 -29 c-75 -98 -420 -474 -435 -474 -15 0 -243 224 -243
239 0 16 42 61 57 61 4 0 44 -36 89 -80 45 -44 86 -80 91 -80 6 0 66 62 134
138 192 212 251 272 269 272 9 0 26 -11 38 -23z"/>
<path d="M4822 6664 c-26 -18 -29 -60 -8 -90 14 -19 35 -19 901 -19 l887 0 19
24 c26 32 24 56 -7 80 -27 21 -32 21 -898 21 -773 0 -874 -2 -894 -16z"/>
<path d="M4817 6282 c-22 -24 -22 -71 1 -88 14 -11 181 -13 898 -14 872 0 880
0 902 20 27 26 28 40 1 74 l-20 26 -883 0 c-843 0 -884 -1 -899 -18z"/>
<path d="M4817 6072 c-21 -23 -22 -66 -1 -86 24 -24 165 -22 187 2 24 26 21
68 -5 86 -34 24 -159 22 -181 -2z"/>
<path d="M5172 6070 c-26 -24 -28 -47 -6 -78 l15 -22 710 0 c696 0 709 0 729
20 26 26 25 50 0 78 l-21 22 -703 0 c-693 0 -703 0 -724 -20z"/>
<path d="M3596 5481 c-10 -11 -16 -31 -14 -48 2 -22 11 -31 38 -40 26 -9 394
-12 1506 -12 1466 -1 1470 -1 1492 19 27 25 28 61 4 83 -17 16 -137 17 -1514
17 -1459 0 -1495 0 -1512 -19z"/>
<path d="M3614 5292 c-6 -4 -17 -18 -24 -31 -10 -20 -9 -27 8 -50 18 -25 23
-26 135 -29 114 -3 115 -2 136 24 27 34 26 40 -4 69 -23 24 -31 25 -132 25
-59 0 -113 -4 -119 -8z"/>
<path d="M3634 4871 c-48 -8 -68 -57 -40 -97 14 -19 43 -19 1504 -22 l1489 -2
26 21 c32 24 35 59 8 83 -18 17 -108 18 -1493 19 -811 1 -1483 0 -1494 -2z"/>
<path d="M3597 4642 c-23 -26 -21 -57 5 -82 22 -20 22 -20 1509 -18 1446 3
1487 4 1508 22 25 23 27 58 5 80 -14 14 -165 16 -1513 16 -1438 0 -1499 -1
-1514 -18z"/>
<path d="M3596 4068 c-21 -30 -20 -61 2 -81 17 -16 82 -17 729 -17 675 0 711
1 726 18 22 24 21 65 -1 85 -17 16 -82 17 -730 17 l-711 0 -15 -22z"/>
<path d="M5239 4080 c-25 -15 -32 -58 -14 -86 l15 -24 684 0 c649 0 684 1 699
18 24 26 21 68 -5 86 -20 14 -102 16 -693 16 -408 0 -676 -4 -686 -10z"/>
<path d="M3600 3860 c-11 -11 -20 -29 -20 -40 0 -11 9 -29 20 -40 20 -20 33
-20 1508 -20 l1489 0 21 23 c27 29 28 51 2 77 -20 20 -33 20 -1510 20 -1477 0
-1490 0 -1510 -20z"/>
<path d="M3618 3399 c-10 -5 -22 -19 -28 -29 -7 -13 -11 -157 -10 -402 l0
-382 25 -26 25 -25 359 0 359 0 26 24 26 24 0 243 0 242 60 72 c33 40 63 83
66 96 9 35 -3 88 -28 119 -42 54 -55 55 -475 55 -243 0 -394 -4 -405 -11z
m787 -109 c15 -16 16 -25 7 -44 -19 -41 -419 -476 -437 -476 -5 1 -66 54 -134
119 -132 127 -133 129 -82 175 21 19 22 19 110 -67 49 -48 93 -87 98 -87 6 0
59 53 119 118 192 208 267 282 284 282 9 0 25 -9 35 -20z"/>
<path d="M4817 2882 c-22 -24 -21 -65 1 -85 16 -15 49 -17 250 -17 219 0 233
1 252 20 11 11 20 29 20 40 0 11 -9 29 -20 40 -19 19 -33 20 -253 20 -214 0
-235 -2 -250 -18z"/>
<path d="M5497 2882 c-22 -24 -21 -65 1 -85 16 -15 49 -17 260 -17 229 0 243
1 262 20 11 11 20 29 20 40 0 11 -9 29 -20 40 -19 19 -33 20 -263 20 -224 0
-245 -2 -260 -18z"/>
<path d="M4830 2677 c-31 -16 -39 -61 -14 -88 16 -18 35 -19 364 -19 323 0
348 1 363 18 24 26 21 68 -5 86 -19 14 -70 16 -353 16 -245 0 -336 -4 -355
-13z"/>
<path d="M2061 7625 c-145 -41 -231 -156 -231 -310 0 -212 237 -362 432 -273
121 56 179 140 186 274 4 72 1 89 -20 135 -65 141 -221 214 -367 174z m130
-117 c48 -16 87 -45 104 -78 13 -25 13 -34 0 -78 -17 -57 -53 -92 -130 -128
-72 -34 -138 -32 -175 4 -79 79 -30 236 86 277 48 17 72 18 115 3z"/>
<path d="M7820 7408 c-52 -27 -80 -73 -80 -133 0 -110 121 -179 220 -126 40
21 80 83 80 125 0 50 -38 114 -81 136 -50 26 -85 25 -139 -2z m110 -88 c24
-24 25 -48 4 -78 -19 -27 -64 -29 -87 -4 -55 61 24 141 83 82z"/>
<path d="M2267 6802 c-26 -28 -21 -47 21 -80 l37 -30 -22 -31 c-28 -37 -29
-53 -5 -74 38 -35 85 -15 113 49 17 36 18 50 9 83 -21 77 -113 127 -153 83z"/>
<path d="M7720 6636 c-16 -21 -9 -56 15 -72 26 -17 69 2 73 33 6 42 -60 72
-88 39z"/>
<path d="M1550 1733 c-50 -19 -65 -68 -30 -103 17 -17 33 -20 111 -20 95 0
122 8 139 41 15 28 4 57 -30 74 -28 15 -157 20 -190 8z"/>
<path d="M8500 1733 c-41 -15 -54 -78 -22 -106 14 -13 39 -17 109 -17 76 0 94
3 117 21 15 12 26 30 26 44 0 14 -11 32 -26 44 -22 18 -40 21 -108 20 -44 0
-88 -3 -96 -6z"/>
</g>
</svg>
