<?xml version="1.0" standalone="no"?>
<!DOCTYPE svg PUBLIC "-//W3C//DTD SVG 20010904//EN"
 "http://www.w3.org/TR/2001/REC-SVG-20010904/DTD/svg10.dtd">
<svg version="1.0" xmlns="http://www.w3.org/2000/svg"
 width="1024.000000pt" height="1024.000000pt" viewBox="0 0 1024.000000 1024.000000"
 preserveAspectRatio="xMidYMid meet">

<g transform="translate(0.000000,1024.000000) scale(0.100000,-0.100000)"
fill="#000000" stroke="none">
<path d="M4847 8400 c-895 -87 -1719 -517 -2278 -1190 -425 -511 -670 -1091
-744 -1758 -24 -212 -17 -606 14 -807 60 -386 148 -669 311 -1000 331 -674
887 -1210 1575 -1518 308 -137 613 -225 955 -272 156 -22 554 -31 717 -16 667
61 1300 311 1803 711 146 116 384 352 500 497 396 491 631 1063 705 1713 17
156 20 508 5 661 -66 653 -301 1233 -709 1747 -101 128 -382 411 -501 506
-483 383 -1017 609 -1680 711 -122 19 -538 28 -673 15z m110 -302 c18 -13 36
-30 40 -38 3 -8 8 -82 10 -165 l4 -150 -55 -24 c-81 -34 -163 -125 -195 -214
-20 -57 -23 -81 -19 -160 3 -81 8 -100 37 -155 41 -75 103 -135 177 -169 l54
-24 0 -209 0 -209 -32 -5 c-222 -33 -334 -67 -480 -143 -104 -55 -231 -149
-312 -231 l-58 -60 -47 47 c-26 25 -102 99 -168 163 l-121 118 23 57 c60 152
30 304 -84 419 -76 77 -145 107 -255 112 -74 3 -101 0 -144 -16 -173 -66 -284
-257 -252 -434 22 -118 96 -223 198 -281 l54 -30 -64 -30 c-121 -58 -220 -188
-254 -333 -27 -115 -5 -205 59 -244 30 -19 53 -20 395 -20 296 0 362 -2 362
-13 0 -8 -7 -36 -15 -63 -20 -66 -45 -218 -45 -276 l0 -48 -803 0 c-888 0
-834 -4 -857 65 -9 27 -8 64 4 169 133 1156 1022 2179 2182 2510 195 56 447
102 568 105 47 1 67 -4 93 -21z m651 -8 c631 -108 1215 -418 1678 -892 381
-390 639 -846 769 -1357 48 -192 81 -442 65 -501 -20 -75 38 -70 -861 -70
l-806 0 -2 62 c-3 74 -24 203 -46 273 -8 28 -15 53 -15 58 0 4 165 7 368 7
331 0 370 2 392 17 67 46 88 115 70 223 -25 150 -132 296 -260 358 l-63 30 39
20 c70 36 141 108 176 180 31 62 33 73 33 172 0 98 -2 110 -32 171 -40 81
-107 150 -181 186 -51 25 -68 28 -157 28 -92 0 -106 -3 -167 -32 -187 -88
-272 -293 -203 -488 14 -38 25 -71 25 -71 0 -1 -74 -73 -165 -159 l-165 -157
-89 84 c-194 183 -417 292 -680 334 l-111 18 0 213 c0 203 1 213 19 213 32 0
129 72 171 129 143 190 81 468 -131 581 l-60 32 3 153 c3 136 5 155 23 175 11
12 29 26 40 31 28 13 184 2 323 -21z m-383 -580 c44 -43 65 -87 65 -139 0
-154 -178 -236 -290 -135 -46 42 -64 89 -58 155 6 58 38 109 88 139 28 16 48
20 97 17 56 -3 67 -7 98 -37z m-1745 -676 c27 -3 31 -2 15 5 -18 9 -18 10 -2
10 23 1 68 -29 61 -40 -3 -5 1 -7 8 -4 20 7 66 -62 74 -111 10 -70 -3 -113
-46 -153 -36 -35 -97 -61 -140 -61 -29 0 -89 32 -71 38 7 2 17 -1 20 -7 5 -7
15 -9 26 -5 14 6 16 4 10 -7 -5 -8 5 0 22 16 26 25 28 31 14 37 -9 4 -10 7 -3
7 6 1 12 10 12 21 0 25 27 27 33 3 3 -10 5 -2 6 17 1 26 7 38 24 45 33 15 35
60 2 91 -23 21 -35 24 -106 24 -49 0 -79 4 -79 11 0 6 18 9 43 8 62 -3 111 0
105 6 -3 3 -38 7 -77 8 -73 3 -87 -5 -74 -40 4 -9 2 -14 -3 -10 -6 3 -10 -16
-10 -51 0 -31 -3 -68 -7 -82 l-7 -25 12 25 c17 32 58 40 58 11 0 -14 6 -21 20
-21 13 0 20 -7 20 -19 0 -11 3 -26 6 -34 3 -10 -2 -18 -16 -22 -30 -10 -38 3
-9 14 21 9 22 10 4 11 -17 0 -17 2 -5 10 8 5 11 10 5 10 -5 0 -17 -5 -25 -10
-13 -9 -13 -10 0 -11 8 0 2 -7 -15 -14 -37 -16 -40 -14 -76 43 -29 46 -41 122
-18 122 5 0 8 4 5 9 -10 15 12 60 45 94 17 18 28 26 25 20 -4 -7 -4 -13 1 -14
4 0 24 -2 43 -4 19 -2 51 1 70 6 35 9 35 9 -6 4 -46 -5 -113 19 -77 28 10 2
25 3 33 0 8 -3 31 -7 50 -9z m3270 -9 c0 -8 -7 -15 -16 -15 -8 0 -12 5 -8 11
8 14 -36 2 -51 -13 -7 -7 -2 -8 15 -3 23 7 23 7 7 -9 -9 -10 -17 -22 -17 -27
0 -5 -13 -9 -29 -9 -40 0 -46 -14 -22 -48 12 -17 18 -38 15 -53 -2 -13 -2 -18
2 -12 11 24 34 -14 34 -57 0 -38 -2 -41 -22 -35 -16 4 -19 3 -9 -3 8 -6 9 -12
3 -16 -18 -11 -62 93 -61 143 l1 46 8 -54 c11 -70 25 -83 28 -24 1 29 -4 56
-14 71 -16 25 -14 30 31 78 42 43 105 60 105 29z m54 3 c-3 -4 -14 -8 -25 -8
-11 0 -18 4 -14 9 3 6 14 9 25 8 10 -1 16 -5 14 -9z m31 -14 c-9 -9 -19 -13
-23 -10 -3 4 0 11 8 16 24 15 33 11 15 -6z m82 -52 c55 -94 31 -195 -61 -251
-30 -19 -36 -20 -60 -7 -22 11 -24 15 -11 20 9 3 14 10 10 15 -3 5 0 13 6 17
8 4 9 3 5 -4 -9 -15 -2 -15 27 0 12 6 28 14 36 18 9 4 16 24 17 50 1 25 -1 38
-6 30 -5 -8 -9 3 -12 29 -4 45 6 56 16 16 6 -24 26 -36 26 -15 0 6 -4 10 -9
10 -5 0 -13 15 -17 32 -3 18 -15 39 -25 46 -24 17 -24 39 -1 45 24 5 28 2 59
-51z m-3527 -56 c-1 -6 -7 -22 -14 -35 -13 -24 -14 -24 -17 16 -4 34 -2 39 13
35 10 -2 18 -9 18 -16z m150 -21 c0 -8 -4 -15 -10 -15 -5 0 -10 7 -10 15 0 8
5 15 10 15 6 0 10 -7 10 -15z m3174 -187 c-3 -5 -12 -4 -20 3 -19 16 -18 18 6
12 11 -3 17 -9 14 -15z m74 -15 c-10 -2 -26 -2 -35 0 -10 3 -2 5 17 5 19 0 27
-2 18 -5z m-1502 -158 c283 -50 525 -200 705 -438 119 -158 201 -385 215 -596
18 -274 -79 -552 -272 -785 l-58 -70 -21 70 c-41 133 -100 230 -205 334 -121
121 -165 147 -359 215 -8 3 13 19 47 36 170 85 282 262 282 448 0 141 -44 245
-147 349 -223 226 -606 190 -782 -75 -49 -73 -68 -124 -81 -213 -28 -200 84
-412 270 -510 l64 -33 -67 -23 c-140 -47 -275 -141 -362 -252 -56 -70 -128
-209 -146 -279 -7 -29 -16 -53 -20 -53 -4 0 -27 24 -52 53 -133 157 -226 350
-263 544 -24 129 -15 344 20 475 51 193 158 372 305 510 249 236 607 348 927
293z m-1536 -109 c63 -57 143 -132 177 -167 l62 -64 -47 -78 c-39 -64 -49 -75
-58 -62 -10 13 -58 15 -343 15 l-333 0 7 33 c20 94 78 175 150 208 44 20 134
25 200 9 48 -11 81 6 91 46 9 35 -19 91 -56 112 -16 9 -30 20 -30 23 0 4 43
24 60 28 3 1 57 -46 120 -103z m2882 54 c-63 -38 -80 -109 -37 -150 23 -22 27
-22 72 -9 61 17 139 15 185 -4 71 -30 144 -127 163 -214 l7 -33 -333 0 c-295
0 -333 -2 -344 -16 -10 -14 -19 -5 -60 67 l-48 83 94 89 c52 49 131 121 176
162 l83 73 34 -16 35 -16 -27 -16z m-2848 -1260 c11 -86 55 -221 106 -327 54
-115 87 -167 172 -270 l58 -71 -95 -101 c-52 -55 -97 -111 -101 -125 -12 -51
28 -112 81 -122 47 -9 85 17 180 121 42 47 81 85 87 85 5 0 26 -13 46 -29 59
-46 219 -127 319 -160 77 -25 222 -53 338 -63 l30 -3 2 -125 2 -126 -49 -23
c-64 -30 -134 -102 -168 -171 -24 -49 -27 -66 -27 -160 0 -91 3 -111 23 -149
36 -67 106 -136 158 -156 44 -17 45 -18 25 -32 -26 -18 -51 -65 -51 -96 0 -26
20 -47 63 -65 33 -14 43 -34 28 -59 -10 -17 -10 -17 -11 0 0 9 -5 17 -11 17
-11 0 -10 -6 6 -70 3 -14 -2 -7 -11 15 -10 22 -22 42 -27 44 -5 2 -3 8 4 13
11 7 9 8 -5 4 -10 -4 -25 -1 -32 5 -8 6 -33 11 -56 11 -32 -1 -48 -7 -72 -31
-25 -25 -30 -40 -34 -89 -9 -120 64 -182 215 -182 l34 0 -3 -171 -3 -171 -34
-30 -34 -31 -106 6 c-265 15 -648 115 -946 247 -855 378 -1459 1079 -1695
1964 -65 242 -105 581 -77 647 17 41 44 66 77 72 14 2 377 5 806 6 l781 1 7
-50z m4265 37 c19 -7 44 -25 55 -40 18 -25 21 -41 19 -128 -8 -390 -163 -904
-388 -1284 -261 -440 -606 -785 -1060 -1057 -375 -225 -898 -396 -1271 -415
l-111 -6 -34 31 -34 30 -3 170 -3 169 66 6 c87 8 130 30 160 82 58 97 7 214
-93 215 -35 0 -49 -6 -73 -29 -16 -16 -29 -37 -29 -46 0 -10 -5 -13 -12 -9 -8
5 -9 2 -5 -9 5 -14 0 -17 -33 -17 -36 0 -40 3 -40 25 0 28 38 55 50 35 10 -16
22 17 15 41 -7 21 10 26 19 7 3 -7 4 1 1 17 -4 21 -3 26 4 15 8 -12 13 -12 30
4 34 31 22 108 -24 146 -14 11 -10 16 33 40 151 87 215 249 163 419 -19 62
-31 81 -84 135 -34 34 -81 71 -104 81 l-43 19 0 126 0 127 78 6 c204 16 415
88 586 202 l70 46 103 -103 c97 -97 105 -103 144 -103 73 0 122 82 88 148 -6
12 -50 61 -97 110 -66 66 -84 91 -77 101 6 8 41 52 78 98 89 109 188 306 222
442 14 54 25 111 25 126 0 14 3 30 7 33 3 4 358 7 787 6 578 0 790 -3 815 -12z
m-2819 -1610 c0 -6 -9 0 -20 13 -11 13 -20 25 -20 28 0 3 9 -3 20 -13 11 -10
20 -23 20 -28z m-212 19 c-7 -8 -15 -12 -17 -11 -5 6 10 25 20 25 5 0 4 -6 -3
-14z m252 -119 c0 -12 -4 -28 -9 -36 -6 -10 -9 -1 -8 26 2 41 17 50 17 10z
m-33 -19 c-3 -8 -6 -5 -6 6 -1 11 2 17 5 13 3 -3 4 -12 1 -19z m-20 -20 c-3
-8 -6 -5 -6 6 -1 11 2 17 5 13 3 -3 4 -12 1 -19z m-221 -23 c1 -8 -2 -13 -7
-9 -5 3 -9 12 -9 21 0 19 13 9 16 -12z m241 -20 c-10 -18 -11 -18 -15 -2 -2 9
-8 14 -14 11 -6 -4 -8 -3 -5 2 3 5 15 10 25 10 18 0 19 -3 9 -21z m-41 -30
c-11 -8 -25 -15 -30 -15 -6 1 0 7 14 15 32 19 40 18 16 0z m-186 -360 c-7 -8
-18 -15 -24 -15 -6 0 -2 7 8 15 25 19 32 19 16 0z"/>
<path d="M3420 6830 c8 -5 22 -9 30 -9 10 0 8 3 -5 9 -27 12 -43 12 -25 0z"/>
<path d="M3321 6762 c-6 -12 -11 -27 -11 -34 1 -7 8 0 16 15 9 16 13 31 11 34
-3 2 -10 -4 -16 -15z"/>
<path d="M3550 6530 c-9 -6 -10 -10 -3 -10 6 0 15 5 18 10 8 12 4 12 -15 0z"/>
<path d="M6890 6774 c0 -13 18 -39 24 -34 2 3 -2 14 -10 24 -8 11 -14 16 -14
10z"/>
<path d="M6826 6528 c5 -8 2 -9 -9 -5 -10 3 -17 2 -17 -2 0 -16 25 -19 43 -6
16 11 16 13 1 19 -23 9 -26 8 -18 -6z"/>
<path d="M3387 4500 c-210 -53 -323 -306 -227 -505 29 -61 82 -118 134 -146
25 -13 46 -26 46 -29 0 -3 -21 -14 -47 -24 -73 -30 -176 -135 -220 -223 -30
-61 -37 -87 -40 -151 -4 -66 -1 -83 19 -121 42 -80 45 -81 423 -81 313 0 332
1 363 20 40 24 72 89 71 145 -1 158 -112 332 -258 407 l-53 27 42 21 c60 31
122 97 156 166 25 51 28 70 29 149 0 77 -4 98 -27 147 -34 73 -104 143 -175
175 -63 29 -170 39 -236 23z m-113 -1075 c3 -8 1 -15 -4 -15 -6 0 -10 7 -10
15 0 8 2 15 4 15 2 0 6 -7 10 -15z"/>
<path d="M4970 2824 c0 -2 9 -8 20 -14 11 -6 20 -7 20 -2 0 6 -9 12 -20 15
-11 3 -20 3 -20 1z"/>
<path d="M6667 4500 c-122 -31 -218 -132 -254 -267 -38 -146 33 -316 162 -384
25 -13 45 -26 45 -29 0 -3 -24 -18 -54 -33 -143 -75 -255 -267 -244 -417 5
-64 36 -121 76 -139 37 -17 664 -15 706 3 110 46 123 215 27 376 -47 78 -134
161 -198 187 -48 20 -53 29 -23 38 11 4 47 31 79 60 82 77 115 151 114 261 0
70 -5 91 -31 147 -58 125 -163 197 -297 203 -38 2 -87 -1 -108 -6z"/>
</g>
</svg>
